<?xml version="1.0" encoding="utf-8"?>
<!-- Generator: Adobe Illustrator 24.0.3, SVG Export Plug-In . SVG Version: 6.00 Build 0)  -->
<svg version="1.1" id="レイヤー_1" xmlns="http://www.w3.org/2000/svg" xmlns:xlink="http://www.w3.org/1999/xlink" x="0px"
	 y="0px" viewBox="0 0 110 35" style="enable-background:new 0 0 110 35;" xml:space="preserve">
<style type="text/css">
	.st0{fill:#036EB8;}
	.st1{display:none;}
	.st2{display:inline;}
	.st3{fill:#3E3A39;}
	.st4{fill:#FFFFFF;}
</style>
<g>
	<path class="st0" d="M8.32,29.54c-0.14-0.06-0.72-0.33-0.89-0.38c0.41-0.13,0.84-0.29,0.95-0.37c0.11-0.08,0.16-0.16,0.32-0.16
		s0.43,0.02,0.53,0c0.1-0.02,0.26-0.08,0.32-0.16s0.06-0.06,0.08-0.21c-0.18-0.14-0.51-0.61-0.56-0.85s-0.14-0.93-0.13-1.15
		c0.02-0.22-0.14-0.97-0.08-1.15c0.06-0.18,0.65-1.05,0.77-1.34s0.29-0.72,0.27-1c-0.02-0.29-0.56-0.93-0.65-1.08
		c-0.1-0.16-0.26-0.77-0.16-0.96c0.1-0.19,0.19-0.26,0.29-0.26c0.1,0,0.72,0.14,0.81,0.13c0.1-0.02,0.05-0.05,0.08-0.24
		c0.03-0.19-0.02-0.86,0.11-1.16c0.13-0.3,0.35-0.27,0.53-0.33c0.18-0.06,0.38-0.3,0.51-0.45c0.13-0.14,0.26-0.24,0.45-0.29
		c0.19-0.05,0.29-0.26,0.45-0.45c0.16-0.19,0.37-0.29,0.43-0.43s0.03-0.29,0.11-0.43s0.45-0.27,0.61-0.33
		c0.16-0.06,0.4-0.06,0.49-0.32c0.1-0.26,0.14-0.37,0.1-0.51c-0.05-0.14-0.45-0.73-0.62-0.89c-0.18-0.16-0.67-0.27-0.78-0.32
		s-0.73-0.51-0.86-0.69c-0.13-0.18-0.32-0.41-0.48-0.46c-0.16-0.05-0.24-0.08-0.33,0.18c-0.1,0.26-0.23,0.59-0.22,0.75
		c0.01,0.16-0.08,0.3-0.23,0.37c-0.14,0.06-0.81,0.14-0.96-0.08c-0.14-0.22-0.03-0.4,0.1-0.57c0.13-0.18,0.24-0.51,0.24-0.67
		c0-0.16,0.21-0.29,0.4-0.41c0.19-0.13,0.35-0.24,0.18-0.4c-0.18-0.16-0.29-0.3-0.35-0.41c-0.06-0.11-0.22-0.11-0.26-0.46
		c-0.03-0.35-0.06-0.85-0.06-1.15c0-0.3,0.27-0.97,0.24-1.42c-0.03-0.45-0.4-1.12-0.69-1.36S8.85,7.32,8.78,7.09
		c-0.06-0.22,0.08-0.18,0-0.35C8.7,6.57,8.59,6.39,8.59,6.01s0.02-0.73-0.13-0.99C8.32,4.76,8.22,4.29,8.24,4.05
		C8.26,3.8,8.21,3.99,8.26,3.8c0.32,0.46,0.59,0.87,0.73,1.01s0.33,0.22,0.48,0.38c0.14,0.16,0.24,0.59,0.3,0.81s0.54,0.57,0.8,0.8
		s0.85,1,1.12,1.16c0.27,0.16,1.5,0.54,1.75,0.67s0.45,0.35,0.72,0.41c0.27,0.06,0.73,0.26,1.04,0.29c0.3,0.03,1.9,0.21,2.28,0.13
		c0.38-0.08,0.77-0.19,1.08-0.4c0.32-0.21,0.53-0.41,0.81-0.51c0.29-0.1,0.62-0.06,0.72-0.19c0.1-0.13,0.11-0.16,0.32-0.18
		c0.21-0.02,0.43-0.08,0.62-0.21c0.19-0.13,0.14-0.02,0.33-0.19c0.29,0.06,0.89,0.22,1.08,0.26c0.19,0.03,0.24,0.02,0.37,0.16
		c0.13,0.14,0.26,0.69,0.45,0.83c0.19,0.14,0.51,0.3,0.81,0.45s0.85,0.64,1.07,0.89s0.4,0.46,0.54,0.69s0.24,0.38,0.53,0.48
		s0.7,0.35,0.91,0.43s0.67,0.16,0.78,0.24c0.11,0.08,0.13,0.3,0,0.33c-0.13,0.03-1.24,0.14-1.42,0.14c-0.18,0-0.59-0.08-0.86,0.05
		c-0.27,0.13-1.1-0.02-1.29,0.11c-0.19,0.13-0.45,0.45-0.7,0.49c-0.26,0.05-0.37,0.11-0.51,0.26s-1.12,0.93-1.31,1.24
		c-0.19,0.32-0.83,0.93-1.04,1.13c-0.21,0.21-0.21,0.59-0.29,0.85c-0.08,0.26-0.24,0.3-0.35,0.54c-0.11,0.24-0.1,0.29-0.26,0.49
		c-0.16,0.21-0.29,0.54-0.22,0.85c0.06,0.3-0.1,0.4-0.22,0.53c-0.13,0.13-0.35,0.49-0.26,0.86s0.45,0.81,0.57,1.04
		s0.08,1.4,0.03,1.72c-0.05,0.32-0.22,0.45-0.41,0.64c-0.19,0.19-0.35,0.56-0.4,0.78c-0.05,0.22-0.14,0.24-0.33,0.26
		c-0.19,0.02-0.43,0.06-0.56,0.32c-0.13,0.26-0.18,0.46-0.18,0.62c0,0.16-0.16,0.1-0.33,0.14c-0.18,0.05-0.32,0.08-0.56,0.29
		c-0.24,0.21-0.7,0.26-0.94,0.18c-0.24-0.08-0.49-0.37-0.85-0.35c-0.35,0.02-0.89-0.06-1,0.08s-0.46,1.05-0.59,1.23
		c-0.13,0.18-0.22,0.29-0.57,0.32c-0.35,0.03-0.48,0.02-0.83,0.13c0.26,0.18,0.24,0.3,0.03,0.43c-0.21,0.13-0.8,0.45-0.85,0.64
		c-0.05,0.19,0.02,0.4,0.08,0.64s0.19,0.38-0.1,0.62c-0.29,0.24-0.67,0.49-0.72,0.59c-0.05,0.1-0.41,0.18-0.62,0.13
		s-0.83-0.16-1.13-0.45s-0.19-0.03-0.4-0.29C8.32,29.54,8.32,29.54,8.32,29.54z"/>
</g>
<g>
	<path class="st0" d="M41.71,27.46c-0.38,0.19-1.56,0.79-3.44,0.79c-3.77,0-5.77-2.61-5.77-5.61c0-3.48,2.57-5.66,5.77-5.66
		c1.24,0,2.39,0.33,3.44,1.02l-0.62,1.75c-0.43-0.37-1.21-1.02-2.81-1.02c-2.46,0-3.86,1.75-3.86,3.88c0,1.96,1.19,3.88,3.99,3.88
		c1.72,0,2.77-0.73,3.3-1.09V27.46z"/>
	<path class="st0" d="M42.41,22.62c0-3.37,2.51-5.63,5.61-5.63c3.08,0,5.59,2.27,5.59,5.63s-2.51,5.63-5.59,5.63
		C44.93,28.25,42.41,25.98,42.41,22.62z M51.71,22.62c0-1.97-1.43-3.88-3.69-3.88c-2.28,0-3.71,1.91-3.71,3.88
		c0,1.96,1.4,3.88,3.71,3.88C50.33,26.5,51.71,24.55,51.71,22.62z"/>
	<path class="st0" d="M56.09,17.2l3.15,9l3.15-9h2.12l-4.03,10.83H58L53.97,17.2H56.09z"/>
	<path class="st0" d="M68.31,17.2v10.83h-1.96V17.2H68.31z"/>
	<path class="st0" d="M71.21,17.2h4.09c1.18,0,1.81,0.07,2.73,0.41c2.65,0.99,3,3.77,3,5.01c0,1.17-0.3,3.96-2.99,5.01
		c-0.77,0.3-1.64,0.41-2.85,0.41h-3.98V17.2z M73.13,26.28h1.77c1.62,0,4.21,0,4.21-3.67c0-3.67-2.61-3.67-4.15-3.67h-1.82V26.28z"
		/>
	<path class="st0" d="M86.39,23.12v1.75h-3.8v-1.75H86.39z"/>
	<path class="st0" d="M89.2,17.2h1.7v10.83h-1.93v-8.77L87,20.64l-0.24-1.78L89.2,17.2z"/>
	<path class="st0" d="M94.37,26.19c0.65,0.26,1.15,0.31,1.57,0.31c1.1,0,2.73-0.41,3.14-3.11c-0.45,0.38-1.07,0.92-2.31,0.92
		c-1.83,0-3.53-1.32-3.53-3.54c0-2.13,1.62-3.79,3.84-3.79c1.1,0,4.05,0.46,4.05,5c0,3.58-1.79,6.27-5.13,6.27
		c-0.86,0-1.38-0.19-1.63-0.27V26.19z M97.09,22.64c1.06,0,2.06-0.75,2.06-1.93c0-1.13-0.86-1.98-2.02-1.98
		c-1.28,0-1.97,1.02-1.97,2C95.16,21.95,96.06,22.64,97.09,22.64z"/>
</g>
<g class="st1">
	<g class="st2">
		<g>
			<path class="st3" d="M26.32,3.68c-0.35-0.46-0.76-0.55-1.02-0.35c-0.21,0.16-0.25,0.46-0.08,0.81l-0.98,0.76
				c-0.4-0.44-0.93-0.74-1.51-0.84l-0.06-1.47c0.36-0.09,0.55-0.31,0.54-0.55c-0.01-0.31-0.34-0.55-0.91-0.52
				c-0.56,0.02-0.87,0.29-0.86,0.6c0.01,0.25,0.23,0.45,0.61,0.51l0.06,1.4c-0.26,0.01-0.52,0.06-0.78,0.15
				c-0.31,0.11-0.58,0.27-0.82,0.46l-0.41-0.5c0.2-0.24,0.22-0.47,0.1-0.63c-0.16-0.19-0.49-0.18-0.86,0.12
				c-0.37,0.3-0.45,0.63-0.29,0.82c0.13,0.15,0.37,0.17,0.65,0.02L20.15,5c-0.29,0.36-0.49,0.78-0.58,1.24L18.18,6.2
				c-0.08-0.4-0.29-0.63-0.55-0.63c-0.33,0-0.6,0.35-0.6,0.98c-0.01,0.63,0.26,0.98,0.58,0.99c0.26,0,0.49-0.23,0.57-0.65l1.36,0.04
				c0.02,0.23,0.06,0.47,0.14,0.7c0.14,0.39,0.36,0.73,0.64,1.01l-0.68,0.79c-0.28-0.16-0.54-0.14-0.67,0.03
				c-0.17,0.2-0.1,0.55,0.27,0.88c0.38,0.32,0.73,0.34,0.91,0.14c0.14-0.16,0.12-0.42-0.09-0.69l0.68-0.8
				c0.52,0.35,1.16,0.51,1.8,0.44l0.33,1.38c-0.37,0.16-0.54,0.4-0.48,0.63c0.07,0.29,0.46,0.44,1.06,0.3
				c0.6-0.14,0.89-0.45,0.82-0.74c-0.05-0.23-0.32-0.37-0.74-0.34l-0.33-1.38c0.62-0.24,1.11-0.68,1.41-1.23l1.3,0.49
				c-0.07,0.4,0.03,0.67,0.25,0.76c0.28,0.11,0.63-0.14,0.85-0.72c0.22-0.58,0.12-0.99-0.16-1.1c-0.22-0.08-0.49,0.06-0.7,0.42
				L24.85,7.4c0.13-0.5,0.12-1.05-0.07-1.57c-0.05-0.14-0.11-0.27-0.18-0.4l1.01-0.78c0.29,0.24,0.58,0.27,0.79,0.11
				C26.66,4.56,26.67,4.14,26.32,3.68z"/>
			<path class="st4" d="M22.38,1.52c0.52,0,0.81,0.23,0.83,0.52c0.01,0.24-0.18,0.46-0.54,0.55l0.06,1.47
				c0.58,0.11,1.11,0.4,1.51,0.84l0.98-0.76c-0.18-0.35-0.13-0.65,0.08-0.81c0.08-0.06,0.18-0.1,0.29-0.1
				c0.22,0,0.49,0.14,0.72,0.45c0.35,0.46,0.34,0.87,0.08,1.07c-0.08,0.06-0.18,0.1-0.29,0.1c-0.15,0-0.33-0.07-0.5-0.21L24.6,5.42
				c0.07,0.13,0.13,0.26,0.18,0.4c0.19,0.53,0.2,1.07,0.07,1.57l1.28,0.49c0.17-0.3,0.38-0.45,0.58-0.45c0.04,0,0.09,0.01,0.13,0.02
				c0.28,0.1,0.38,0.52,0.16,1.1c-0.19,0.49-0.47,0.74-0.72,0.74c-0.04,0-0.09-0.01-0.13-0.02c-0.22-0.08-0.32-0.36-0.25-0.76
				l-1.3-0.49c-0.3,0.55-0.79,0.99-1.41,1.23l0.33,1.38c0.03,0,0.07,0,0.1,0c0.36,0,0.59,0.14,0.64,0.35
				c0.07,0.29-0.22,0.6-0.82,0.74c-0.16,0.04-0.3,0.05-0.42,0.05c-0.36,0-0.59-0.14-0.64-0.35c-0.05-0.23,0.12-0.47,0.48-0.63
				l-0.33-1.38c-0.1,0.01-0.2,0.02-0.3,0.02c-0.54,0-1.06-0.16-1.5-0.45l-0.68,0.8c0.21,0.26,0.23,0.52,0.09,0.69
				c-0.07,0.09-0.18,0.13-0.31,0.13c-0.17,0-0.38-0.08-0.6-0.27c-0.38-0.32-0.45-0.67-0.27-0.88c0.07-0.09,0.18-0.13,0.31-0.13
				c0.11,0,0.23,0.03,0.37,0.11l0.68-0.79c-0.28-0.28-0.5-0.62-0.64-1.01c-0.08-0.23-0.13-0.47-0.14-0.7l-1.36-0.04
				c-0.08,0.42-0.3,0.65-0.57,0.65c0,0,0,0,0,0c-0.33,0-0.59-0.36-0.58-0.99c0.01-0.63,0.27-0.98,0.6-0.98c0,0,0,0,0,0
				c0.26,0,0.47,0.23,0.55,0.63l1.39,0.04c0.08-0.46,0.28-0.88,0.58-1.24L19.7,4.46c-0.13,0.07-0.26,0.11-0.37,0.11
				c-0.12,0-0.22-0.04-0.29-0.12c-0.16-0.19-0.08-0.52,0.29-0.82c0.21-0.17,0.41-0.25,0.57-0.25c0.12,0,0.22,0.04,0.29,0.13
				c0.12,0.15,0.1,0.39-0.1,0.63l0.41,0.5c0.24-0.19,0.51-0.35,0.82-0.46c0.26-0.09,0.52-0.14,0.78-0.15l-0.06-1.4
				c-0.38-0.06-0.6-0.26-0.61-0.51c-0.01-0.31,0.29-0.57,0.86-0.6C22.32,1.52,22.35,1.52,22.38,1.52 M22.38,1.3
				c-0.03,0-0.06,0-0.09,0c-0.76,0.03-1.08,0.43-1.06,0.82c0.01,0.32,0.25,0.57,0.62,0.67l0.04,1.03c-0.21,0.03-0.43,0.07-0.63,0.15
				c-0.25,0.09-0.49,0.21-0.71,0.37l-0.18-0.22c0.16-0.27,0.16-0.55-0.01-0.75c-0.11-0.13-0.27-0.2-0.45-0.2
				c-0.22,0-0.47,0.1-0.7,0.3C19,3.63,18.86,3.82,18.8,4.01c-0.07,0.21-0.04,0.41,0.09,0.57c0.11,0.13,0.27,0.2,0.45,0.2
				c0.1,0,0.2-0.02,0.31-0.06L19.88,5c-0.22,0.31-0.39,0.65-0.48,1.02l-1.06-0.03c-0.12-0.39-0.39-0.63-0.72-0.63l-0.01,0
				c-0.4,0-0.8,0.37-0.81,1.19c0,0.34,0.07,0.63,0.2,0.84c0.14,0.23,0.36,0.36,0.59,0.36l0.01,0c0.33,0,0.6-0.24,0.73-0.64l1,0.03
				c0.03,0.2,0.07,0.39,0.14,0.57c0.12,0.35,0.31,0.66,0.55,0.94l-0.45,0.53c-0.11-0.04-0.21-0.06-0.31-0.06
				c-0.19,0-0.35,0.07-0.47,0.21c-0.14,0.16-0.18,0.37-0.11,0.59c0.06,0.2,0.2,0.41,0.41,0.59c0.25,0.21,0.5,0.32,0.73,0.32
				c0.19,0,0.36-0.07,0.47-0.21c0.19-0.22,0.19-0.52,0.01-0.81l0.46-0.54c0.44,0.26,0.94,0.39,1.46,0.39c0.05,0,0.09,0,0.14,0
				l0.25,1.04c-0.29,0.17-0.53,0.45-0.45,0.79c0.08,0.32,0.39,0.51,0.84,0.51c0.15,0,0.3-0.02,0.47-0.06
				c0.32-0.08,0.58-0.2,0.76-0.37c0.19-0.18,0.27-0.41,0.22-0.63c-0.07-0.3-0.36-0.49-0.78-0.51l-0.25-1.04
				c0.51-0.23,0.95-0.61,1.25-1.09l0.98,0.37C25.65,9,25.75,9.35,26.08,9.48c0.07,0.03,0.14,0.04,0.21,0.04
				c0.36,0,0.7-0.33,0.91-0.88c0.12-0.31,0.16-0.6,0.12-0.84c-0.04-0.26-0.19-0.45-0.4-0.53c-0.07-0.02-0.13-0.04-0.2-0.04
				c-0.24,0-0.47,0.14-0.66,0.4L25.1,7.26c0.1-0.5,0.06-1.02-0.12-1.51c-0.03-0.09-0.07-0.18-0.11-0.27l0.74-0.58
				c0.16,0.1,0.33,0.16,0.5,0.16c0.15,0,0.3-0.05,0.42-0.14c0.32-0.24,0.42-0.76-0.05-1.37c-0.27-0.34-0.58-0.53-0.89-0.53
				c-0.16,0-0.3,0.05-0.42,0.14c-0.26,0.2-0.34,0.54-0.21,0.91l-0.71,0.54c-0.37-0.35-0.83-0.61-1.33-0.73l-0.05-1.15
				c0.34-0.14,0.54-0.4,0.53-0.71C23.4,1.67,23.07,1.3,22.38,1.3L22.38,1.3z"/>
		</g>
	</g>
	<g class="st2">
		<circle class="st4" cx="21.44" cy="5.93" r="0.79"/>
		<path d="M21.44,6.76c-0.46,0-0.83-0.37-0.83-0.83c0-0.46,0.37-0.83,0.83-0.83c0.46,0,0.83,0.37,0.83,0.83
			C22.27,6.39,21.9,6.76,21.44,6.76z M21.44,5.18c-0.42,0-0.76,0.34-0.76,0.76s0.34,0.76,0.76,0.76c0.42,0,0.76-0.34,0.76-0.76
			S21.86,5.18,21.44,5.18z"/>
	</g>
	<g class="st2">
		<circle class="st4" cx="22.77" cy="7.26" r="0.54"/>
		<path d="M22.77,7.83c-0.32,0-0.57-0.26-0.57-0.57s0.26-0.57,0.57-0.57s0.57,0.26,0.57,0.57S23.08,7.83,22.77,7.83z M22.77,6.76
			c-0.28,0-0.5,0.22-0.5,0.5c0,0.28,0.22,0.5,0.5,0.5c0.28,0,0.5-0.22,0.5-0.5C23.27,6.98,23.04,6.76,22.77,6.76z"/>
	</g>
</g>
<g>
	<rect x="32.17" y="5.11" class="st0" width="69.68" height="7.82"/>
</g>
<g>
	<path class="st4" d="M55.44,11.01c-0.41,0.23-0.89,0.33-1.36,0.33c-1.5,0-2.37-1.02-2.37-2.31c0-1.46,1.09-2.33,2.36-2.33
		c0.51,0,0.94,0.13,1.37,0.41l-0.18,0.49c-0.15-0.11-0.52-0.41-1.2-0.41c-1.15,0-1.82,0.84-1.82,1.83c0,0.88,0.54,1.83,1.88,1.83
		c0.74,0,1.12-0.28,1.32-0.43V11.01z"/>
	<path class="st4" d="M61.8,8.63V6.79h0.53v4.46H61.8V9.12h-2.21v2.13h-0.53V6.79h0.53v1.84H61.8z"/>
	<path class="st4" d="M66.77,6.79v4.46h-0.55V6.79H66.77z"/>
	<path class="st4" d="M72.07,6.79c0.39,0,0.62,0.02,0.87,0.12c0.3,0.13,0.61,0.45,0.61,1.02c0,0.64-0.38,0.86-0.57,0.97
		c0.2,0.1,0.72,0.35,0.72,1.09c0,1.26-1.14,1.26-1.55,1.26h-1.49V6.79H72.07z M71.18,7.27v1.41h1.01c0.15,0,0.83,0,0.83-0.7
		c0-0.71-0.59-0.71-0.96-0.71H71.18z M71.18,9.16v1.6h0.91c0.53,0,1.06-0.06,1.06-0.81c0-0.72-0.66-0.79-0.89-0.79H71.18z"/>
	<path class="st4" d="M78.02,9.93l-0.49,1.32h-0.6l1.7-4.46h0.75l1.7,4.46h-0.6l-0.49-1.32H78.02z M79.81,9.45L79,7.28l-0.81,2.17
		H79.81z"/>
</g>
</svg>
