<?xml version="1.0" encoding="utf-8"?>
<!-- Generator: Adobe Illustrator 24.0.3, SVG Export Plug-In . SVG Version: 6.00 Build 0)  -->
<svg version="1.1" id="レイヤー_1" xmlns="http://www.w3.org/2000/svg" xmlns:xlink="http://www.w3.org/1999/xlink" x="0px"
	 y="0px" viewBox="0 0 150 48" style="enable-background:new 0 0 150 48;" xml:space="preserve">
<style type="text/css">
	.st0{fill:#036EB8;}
	.st1{display:none;}
	.st2{display:inline;}
	.st3{fill:#3E3A39;}
	.st4{fill:#FFFFFF;}
	.st5{fill:#FFFFFF;stroke:#FFFFFF;stroke-width:0.25;stroke-miterlimit:10;}
</style>
<g>
	<path class="st0" d="M4.39,43.4C4.17,43.3,3.26,42.88,3,42.8c0.64-0.2,1.32-0.45,1.49-0.57c0.17-0.12,0.25-0.25,0.5-0.25
		c0.25,0,0.67,0.02,0.82,0c0.15-0.02,0.4-0.12,0.5-0.25c0.1-0.12,0.1-0.1,0.12-0.32c-0.27-0.22-0.8-0.95-0.87-1.32
		c-0.07-0.37-0.22-1.45-0.2-1.8c0.02-0.35-0.22-1.52-0.12-1.8c0.1-0.27,1.02-1.65,1.2-2.1s0.45-1.12,0.42-1.57
		c-0.02-0.45-0.87-1.45-1.02-1.7c-0.15-0.25-0.4-1.2-0.25-1.5c0.15-0.3,0.3-0.4,0.45-0.4c0.15,0,1.12,0.22,1.27,0.2
		c0.15-0.02,0.07-0.07,0.12-0.37s-0.02-1.35,0.17-1.82c0.2-0.47,0.55-0.42,0.82-0.52c0.27-0.1,0.6-0.47,0.8-0.7
		c0.2-0.22,0.4-0.37,0.7-0.45c0.3-0.07,0.45-0.4,0.7-0.7c0.25-0.3,0.57-0.45,0.67-0.67s0.05-0.45,0.17-0.67
		c0.12-0.22,0.7-0.42,0.95-0.52c0.25-0.1,0.62-0.1,0.77-0.5c0.15-0.4,0.22-0.57,0.15-0.8c-0.07-0.22-0.7-1.15-0.97-1.4
		c-0.27-0.25-1.05-0.42-1.22-0.5s-1.15-0.8-1.35-1.07c-0.2-0.27-0.5-0.65-0.75-0.72s-0.37-0.12-0.52,0.27
		c-0.15,0.4-0.36,0.92-0.34,1.17s-0.13,0.47-0.36,0.57c-0.22,0.1-1.27,0.22-1.5-0.12c-0.22-0.35-0.05-0.62,0.15-0.9
		c0.2-0.27,0.37-0.8,0.37-1.05s0.32-0.45,0.62-0.65c0.3-0.2,0.55-0.37,0.27-0.62c-0.27-0.25-0.45-0.47-0.55-0.65
		c-0.1-0.17-0.35-0.17-0.4-0.72c-0.05-0.55-0.1-1.32-0.1-1.8c0-0.47,0.42-1.52,0.37-2.22c-0.05-0.7-0.62-1.75-1.07-2.12
		s-0.8-0.52-0.9-0.87s0.12-0.27,0-0.55s-0.3-0.55-0.3-1.15s0.02-1.15-0.2-1.55c-0.22-0.4-0.37-1.13-0.35-1.52
		c0.02-0.39-0.05-0.08,0.02-0.39c0.5,0.71,0.92,1.36,1.15,1.59s0.52,0.35,0.75,0.6c0.22,0.25,0.37,0.92,0.47,1.27
		c0.1,0.35,0.85,0.9,1.25,1.25s1.32,1.57,1.75,1.82c0.42,0.25,2.35,0.85,2.75,1.05s0.7,0.55,1.12,0.65c0.42,0.1,1.15,0.4,1.62,0.45
		c0.47,0.05,2.97,0.32,3.57,0.2s1.2-0.3,1.7-0.62c0.5-0.32,0.82-0.65,1.27-0.8c0.45-0.15,0.97-0.1,1.12-0.3
		c0.15-0.2,0.17-0.25,0.5-0.27s0.67-0.12,0.97-0.32c0.3-0.2,0.22-0.02,0.52-0.3c0.45,0.1,1.4,0.35,1.7,0.4
		c0.3,0.05,0.37,0.02,0.57,0.25c0.2,0.22,0.4,1.07,0.7,1.3c0.3,0.22,0.8,0.47,1.27,0.7c0.47,0.22,1.32,1,1.67,1.4
		c0.35,0.4,0.62,0.72,0.85,1.07c0.22,0.35,0.37,0.6,0.82,0.75c0.45,0.15,1.1,0.55,1.42,0.67s1.05,0.25,1.22,0.37
		c0.17,0.12,0.2,0.47,0,0.52c-0.2,0.05-1.95,0.22-2.22,0.22c-0.27,0-0.92-0.12-1.35,0.07c-0.42,0.2-1.72-0.02-2.02,0.17
		s-0.7,0.7-1.1,0.77c-0.4,0.07-0.57,0.17-0.8,0.4c-0.22,0.22-1.75,1.45-2.05,1.95c-0.3,0.5-1.3,1.45-1.62,1.77
		c-0.32,0.32-0.32,0.92-0.45,1.32c-0.12,0.4-0.37,0.47-0.55,0.85s-0.15,0.45-0.4,0.77c-0.25,0.32-0.45,0.85-0.35,1.32
		c0.1,0.47-0.15,0.62-0.35,0.82s-0.55,0.77-0.4,1.35c0.15,0.57,0.7,1.27,0.9,1.62c0.2,0.35,0.12,2.2,0.05,2.7
		c-0.07,0.5-0.35,0.7-0.65,1c-0.3,0.3-0.55,0.87-0.62,1.22c-0.07,0.35-0.22,0.37-0.52,0.4c-0.3,0.02-0.67,0.1-0.87,0.5
		s-0.27,0.72-0.27,0.97s-0.25,0.15-0.52,0.22c-0.27,0.07-0.5,0.12-0.87,0.45c-0.37,0.32-1.1,0.4-1.47,0.27s-0.77-0.57-1.32-0.55
		c-0.55,0.02-1.4-0.1-1.57,0.12c-0.17,0.22-0.72,1.65-0.92,1.92s-0.35,0.45-0.9,0.5s-0.75,0.02-1.3,0.2
		c0.4,0.27,0.37,0.47,0.05,0.67c-0.32,0.2-1.25,0.7-1.32,1s0.02,0.62,0.12,1c0.1,0.37,0.3,0.6-0.15,0.97
		c-0.45,0.37-1.05,0.77-1.12,0.92c-0.07,0.15-0.65,0.27-0.97,0.2c-0.32-0.07-1.3-0.25-1.77-0.7c-0.47-0.45-0.3-0.05-0.62-0.45
		S4.39,43.4,4.39,43.4z"/>
</g>
<g>
	<path class="st0" d="M54.69,40.16c-0.6,0.3-2.45,1.23-5.38,1.23c-5.91,0-9.04-4.08-9.04-8.78c0-5.44,4.02-8.87,9.04-8.87
		c1.94,0,3.74,0.51,5.38,1.6l-0.98,2.74c-0.68-0.57-1.89-1.6-4.4-1.6c-3.85,0-6.04,2.74-6.04,6.08c0,3.06,1.87,6.08,6.25,6.08
		c2.7,0,4.34-1.15,5.17-1.7V40.16z"/>
	<path class="st0" d="M55.8,32.56c0-5.27,3.93-8.83,8.78-8.83c4.83,0,8.76,3.55,8.76,8.83s-3.93,8.83-8.76,8.83
		C59.73,41.39,55.8,37.84,55.8,32.56z M70.37,32.56c0-3.08-2.23-6.08-5.78-6.08c-3.57,0-5.81,3-5.81,6.08
		c0,3.06,2.19,6.08,5.81,6.08C68.2,38.65,70.37,35.58,70.37,32.56z"/>
	<path class="st0" d="M77.22,24.08l4.93,14.1l4.93-14.1h3.32l-6.32,16.97h-3.87L73.9,24.08H77.22z"/>
	<path class="st0" d="M96.36,24.08v16.97h-3.06V24.08H96.36z"/>
	<path class="st0" d="M100.91,24.08h6.4c1.85,0,2.83,0.11,4.27,0.64c4.15,1.55,4.7,5.91,4.7,7.85c0,1.83-0.47,6.21-4.68,7.85
		c-1.21,0.47-2.57,0.64-4.47,0.64h-6.23V24.08z M103.91,38.31h2.76c2.53,0,6.59,0,6.59-5.74c0-5.74-4.08-5.74-6.51-5.74h-2.85V38.31
		z"/>
	<path class="st0" d="M124.69,33.35v2.74h-5.96v-2.74H124.69z"/>
	<path class="st0" d="M129.09,24.08h2.66v16.97h-3.02V27.31l-3.08,2.15l-0.38-2.79L129.09,24.08z"/>
	<path class="st0" d="M137.19,38.16c1.02,0.4,1.81,0.49,2.47,0.49c1.72,0,4.27-0.64,4.91-4.87c-0.7,0.6-1.68,1.45-3.62,1.45
		c-2.87,0-5.53-2.06-5.53-5.55c0-3.34,2.53-5.93,6.02-5.93c1.72,0,6.34,0.72,6.34,7.83c0,5.61-2.81,9.83-8.04,9.83
		c-1.34,0-2.17-0.3-2.55-0.43V38.16z M141.45,32.61c1.66,0,3.23-1.17,3.23-3.02c0-1.77-1.34-3.11-3.17-3.11c-2,0-3.08,1.6-3.08,3.13
		C138.43,31.52,139.83,32.61,141.45,32.61z"/>
</g>
<g class="st1">
	<g class="st2">
		<g>
			<path class="st3" d="M42.23,9c-0.35-0.46-0.76-0.55-1.02-0.35c-0.21,0.16-0.25,0.46-0.08,0.81l-0.98,0.76
				c-0.4-0.44-0.93-0.74-1.51-0.84L38.58,7.9c0.36-0.09,0.55-0.31,0.54-0.55c-0.01-0.31-0.34-0.55-0.91-0.52
				c-0.56,0.02-0.87,0.29-0.86,0.6c0.01,0.25,0.23,0.45,0.61,0.51l0.06,1.4c-0.26,0.01-0.52,0.06-0.78,0.15
				c-0.31,0.11-0.58,0.27-0.82,0.46l-0.41-0.5c0.2-0.24,0.22-0.47,0.1-0.63c-0.16-0.19-0.49-0.18-0.86,0.12
				c-0.37,0.3-0.45,0.63-0.29,0.82c0.13,0.15,0.37,0.17,0.65,0.02l0.44,0.54c-0.29,0.36-0.49,0.78-0.58,1.24l-1.39-0.04
				c-0.08-0.4-0.29-0.63-0.55-0.63c-0.33,0-0.6,0.35-0.6,0.98c-0.01,0.63,0.26,0.98,0.58,0.99c0.26,0,0.49-0.23,0.57-0.65l1.36,0.04
				c0.02,0.23,0.06,0.47,0.14,0.7c0.14,0.39,0.36,0.73,0.64,1.01l-0.68,0.79c-0.28-0.16-0.54-0.14-0.67,0.03
				c-0.17,0.2-0.1,0.55,0.27,0.88c0.38,0.32,0.73,0.34,0.91,0.14c0.14-0.16,0.12-0.42-0.09-0.69l0.68-0.8
				c0.52,0.35,1.16,0.51,1.8,0.44l0.33,1.38c-0.37,0.16-0.54,0.4-0.48,0.63c0.07,0.29,0.46,0.44,1.06,0.3
				c0.6-0.14,0.89-0.45,0.82-0.74c-0.05-0.23-0.32-0.37-0.74-0.34l-0.33-1.38c0.62-0.24,1.11-0.68,1.41-1.23l1.3,0.49
				c-0.07,0.4,0.03,0.67,0.25,0.76c0.28,0.11,0.63-0.14,0.85-0.72c0.22-0.58,0.12-0.99-0.16-1.1c-0.22-0.08-0.49,0.06-0.7,0.42
				l-1.28-0.49c0.13-0.5,0.12-1.05-0.07-1.57c-0.05-0.14-0.11-0.27-0.18-0.4l1.01-0.78c0.29,0.24,0.58,0.27,0.79,0.11
				C42.58,9.87,42.59,9.45,42.23,9z"/>
			<path class="st4" d="M38.3,6.83c0.52,0,0.81,0.23,0.83,0.52c0.01,0.24-0.18,0.46-0.54,0.55l0.06,1.47
				c0.58,0.11,1.11,0.4,1.51,0.84l0.98-0.76c-0.18-0.35-0.13-0.65,0.08-0.81c0.08-0.06,0.18-0.1,0.29-0.1
				c0.22,0,0.49,0.14,0.72,0.45c0.35,0.46,0.34,0.87,0.08,1.07c-0.08,0.06-0.18,0.1-0.29,0.1c-0.15,0-0.33-0.07-0.5-0.21l-1.01,0.78
				c0.07,0.13,0.13,0.26,0.18,0.4c0.19,0.53,0.2,1.07,0.07,1.57l1.28,0.49c0.17-0.3,0.38-0.45,0.58-0.45c0.04,0,0.09,0.01,0.13,0.02
				c0.28,0.1,0.38,0.52,0.16,1.1c-0.19,0.49-0.47,0.74-0.72,0.74c-0.04,0-0.09-0.01-0.13-0.02c-0.22-0.08-0.32-0.36-0.25-0.76
				l-1.3-0.49c-0.3,0.55-0.79,0.99-1.41,1.23l0.33,1.38c0.03,0,0.07,0,0.1,0c0.36,0,0.59,0.14,0.64,0.35
				c0.07,0.29-0.22,0.6-0.82,0.74c-0.16,0.04-0.3,0.05-0.42,0.05c-0.36,0-0.59-0.14-0.64-0.35c-0.05-0.23,0.12-0.47,0.48-0.63
				l-0.33-1.38c-0.1,0.01-0.2,0.02-0.3,0.02c-0.54,0-1.06-0.16-1.5-0.45l-0.68,0.8c0.21,0.26,0.23,0.52,0.09,0.69
				c-0.07,0.09-0.18,0.13-0.31,0.13c-0.17,0-0.38-0.08-0.6-0.27c-0.38-0.32-0.45-0.67-0.27-0.88c0.07-0.09,0.18-0.13,0.31-0.13
				c0.11,0,0.23,0.03,0.37,0.11l0.68-0.79c-0.28-0.28-0.5-0.62-0.64-1.01c-0.08-0.23-0.13-0.47-0.14-0.7l-1.36-0.04
				c-0.08,0.42-0.3,0.65-0.57,0.65c0,0,0,0,0,0c-0.33,0-0.59-0.36-0.58-0.99c0.01-0.63,0.27-0.98,0.6-0.98c0,0,0,0,0,0
				c0.26,0,0.47,0.23,0.55,0.63l1.39,0.04c0.08-0.46,0.28-0.88,0.58-1.24l-0.44-0.54c-0.13,0.07-0.26,0.11-0.37,0.11
				c-0.12,0-0.22-0.04-0.29-0.12c-0.16-0.19-0.08-0.52,0.29-0.82c0.21-0.17,0.41-0.25,0.57-0.25c0.12,0,0.22,0.04,0.29,0.13
				c0.12,0.15,0.1,0.39-0.1,0.63l0.41,0.5c0.24-0.19,0.51-0.35,0.82-0.46c0.26-0.09,0.52-0.14,0.78-0.15l-0.06-1.4
				c-0.38-0.06-0.6-0.26-0.61-0.51c-0.01-0.31,0.29-0.57,0.86-0.6C38.24,6.83,38.27,6.83,38.3,6.83 M38.3,6.62
				c-0.03,0-0.06,0-0.09,0c-0.76,0.03-1.08,0.43-1.06,0.82c0.01,0.32,0.25,0.57,0.62,0.67l0.04,1.03c-0.21,0.03-0.43,0.07-0.63,0.15
				c-0.25,0.09-0.49,0.21-0.71,0.37l-0.18-0.22c0.16-0.27,0.16-0.55-0.01-0.75c-0.11-0.13-0.27-0.2-0.45-0.2
				c-0.22,0-0.47,0.1-0.7,0.3c-0.21,0.17-0.35,0.36-0.41,0.55c-0.07,0.21-0.04,0.41,0.09,0.57c0.11,0.13,0.27,0.2,0.45,0.2
				c0.1,0,0.2-0.02,0.31-0.06l0.23,0.28c-0.22,0.31-0.39,0.65-0.48,1.02l-1.06-0.03c-0.12-0.39-0.39-0.63-0.72-0.63l-0.01,0
				c-0.4,0-0.8,0.37-0.81,1.19c0,0.34,0.07,0.63,0.2,0.84c0.14,0.23,0.36,0.36,0.59,0.36l0.01,0c0.33,0,0.6-0.24,0.73-0.64l1,0.03
				c0.03,0.2,0.07,0.39,0.14,0.57c0.12,0.35,0.31,0.66,0.55,0.94l-0.45,0.53c-0.11-0.04-0.21-0.06-0.31-0.06
				c-0.19,0-0.35,0.07-0.47,0.21c-0.14,0.16-0.18,0.37-0.11,0.59c0.06,0.2,0.2,0.41,0.41,0.59c0.25,0.21,0.5,0.32,0.73,0.32
				c0.19,0,0.36-0.07,0.47-0.21c0.19-0.22,0.19-0.52,0.01-0.81l0.46-0.54c0.44,0.26,0.94,0.39,1.46,0.39c0.05,0,0.09,0,0.14,0
				l0.25,1.04c-0.29,0.17-0.53,0.45-0.45,0.79c0.08,0.32,0.39,0.51,0.84,0.51c0.15,0,0.3-0.02,0.47-0.06
				c0.32-0.08,0.58-0.2,0.76-0.37c0.19-0.18,0.27-0.41,0.22-0.63c-0.07-0.3-0.36-0.49-0.78-0.51l-0.25-1.04
				c0.51-0.23,0.95-0.61,1.25-1.09l0.98,0.37c-0.02,0.34,0.08,0.69,0.41,0.82c0.07,0.03,0.14,0.04,0.21,0.04
				c0.36,0,0.7-0.33,0.91-0.88c0.12-0.31,0.16-0.6,0.12-0.84c-0.04-0.26-0.19-0.45-0.4-0.53c-0.07-0.02-0.13-0.04-0.2-0.04
				c-0.24,0-0.47,0.14-0.66,0.4l-0.95-0.36c0.1-0.5,0.06-1.02-0.12-1.51c-0.03-0.09-0.07-0.18-0.11-0.27l0.74-0.58
				c0.16,0.1,0.33,0.16,0.5,0.16c0.15,0,0.3-0.05,0.42-0.14c0.32-0.24,0.42-0.76-0.05-1.37c-0.27-0.34-0.58-0.53-0.89-0.53
				c-0.16,0-0.3,0.05-0.42,0.14c-0.26,0.2-0.34,0.54-0.21,0.91l-0.71,0.54c-0.37-0.35-0.83-0.61-1.33-0.73L38.8,8.06
				c0.34-0.14,0.54-0.4,0.53-0.71C39.32,6.98,38.99,6.62,38.3,6.62L38.3,6.62z"/>
		</g>
	</g>
	<g class="st2">
		<circle class="st4" cx="37.36" cy="11.25" r="0.79"/>
		<path d="M37.36,12.07c-0.46,0-0.83-0.37-0.83-0.83c0-0.46,0.37-0.83,0.83-0.83c0.46,0,0.83,0.37,0.83,0.83
			C38.19,11.7,37.82,12.07,37.36,12.07z M37.36,10.49c-0.42,0-0.76,0.34-0.76,0.76c0,0.42,0.34,0.76,0.76,0.76
			c0.42,0,0.76-0.34,0.76-0.76C38.12,10.83,37.78,10.49,37.36,10.49z"/>
	</g>
	<g class="st2">
		<circle class="st4" cx="38.69" cy="12.57" r="0.54"/>
		<path d="M38.69,13.15c-0.32,0-0.57-0.26-0.57-0.57S38.37,12,38.69,12s0.57,0.26,0.57,0.57S39,13.15,38.69,13.15z M38.69,12.07
			c-0.28,0-0.5,0.22-0.5,0.5c0,0.28,0.22,0.5,0.5,0.5s0.5-0.22,0.5-0.5C39.19,12.3,38.96,12.07,38.69,12.07z"/>
	</g>
</g>
<g>
	<rect x="39.76" y="3.08" class="st0" width="109.16" height="14.3"/>
</g>
<g>
	<path class="st5" d="M70.72,14.55c-0.88,0.5-1.92,0.71-2.94,0.71c-3.25,0-5.11-2.21-5.11-4.98c0-3.15,2.34-5.03,5.1-5.03
		c1.1,0,2.04,0.28,2.95,0.88l-0.39,1.05C70.01,6.94,69.2,6.3,67.74,6.3c-2.48,0-3.93,1.82-3.93,3.95c0,1.89,1.16,3.95,4.05,3.95
		c1.59,0,2.42-0.61,2.86-0.93V14.55z"/>
	<path class="st5" d="M84.45,9.43V5.45h1.15v9.62h-1.15v-4.59h-4.77v4.59h-1.15V5.45h1.15v3.98H84.45z"/>
	<path class="st5" d="M95.16,5.45v9.62h-1.2V5.45H95.16z"/>
	<path class="st5" d="M106.59,5.45c0.84,0,1.33,0.04,1.87,0.27c0.65,0.28,1.31,0.96,1.31,2.2c0,1.38-0.82,1.86-1.22,2.09
		c0.43,0.21,1.55,0.74,1.55,2.36c0,2.71-2.45,2.71-3.34,2.71h-3.21V5.45H106.59z M104.68,6.5v3.05h2.17c0.33,0,1.78,0,1.78-1.51
		c0-1.54-1.28-1.54-2.07-1.54H104.68z M104.68,10.57v3.44h1.96c1.15,0,2.28-0.13,2.28-1.75c0-1.56-1.42-1.7-1.93-1.7H104.68z"/>
	<path class="st5" d="M119.43,12.22l-1.05,2.84h-1.29l3.66-9.62h1.61l3.66,9.62h-1.29l-1.05-2.84H119.43z M123.3,11.2l-1.75-4.69
		l-1.75,4.69H123.3z"/>
</g>
</svg>
