<!--?xml version="1.0" encoding="utf-8"?-->
<!-- Generator: Adobe Illustrator 18.1.1, SVG Export Plug-In . SVG Version: 6.00 Build 0)  -->

<svg version="1.1" id="_x31_0" xmlns="http://www.w3.org/2000/svg" xmlns:xlink="http://www.w3.org/1999/xlink" x="0px" y="0px" viewBox="0 0 512 512" style="width: 16px; height: 16px; opacity: 1;" xml:space="preserve">
<style type="text/css">
	.st0{fill:#374149;}
</style>
<g>
	<path class="st0" d="M248.656,233.477l3.453-2.309c1.348-0.961,2.402-1.918,3.364-3.07c0.859-1.152,1.339-2.398,1.339-3.844
		c0-1.918-0.574-3.546-1.726-4.801c-1.246-1.246-2.882-1.914-5.09-1.914s-3.84,0.668-4.992,1.914
		c-1.149,1.254-1.727,2.883-1.727,4.801c0,1.539,0.481,2.981,1.535,4.516C245.965,230.207,247.211,231.746,248.656,233.477z" style="fill: rgb(75, 75, 75);"></path>
	<path class="st0" d="M244.426,250.469c-2.492,1.82-4.508,3.645-6.047,5.469c-1.535,1.824-2.301,4.222-2.301,7.102
		c0,1.73,0.387,3.266,0.962,4.707c0.23,0.496,0.644,0.82,0.926,1.258c0.25,0.386,0.527,0.762,0.824,1.117
		c0.336,0.398,0.535,0.902,0.938,1.27c1.152,0.961,2.398,1.73,3.938,2.309c1.438,0.574,3.07,0.863,4.894,0.863
		c2.398,0,4.606-0.386,6.527-1.156c1.723-0.723,3.531-1.91,5.348-3.41c0.062-0.046,0.129-0.082,0.191-0.133l-0.004-0.008
		c0.043-0.035,0.086-0.058,0.129-0.094L244.426,250.469z" style="fill: rgb(75, 75, 75);"></path>
	<path class="st0" d="M123.086,239.617c0.578,2.883,1.34,5.282,2.207,7.2c0.313,0.66,0.832,1.191,1.215,1.804
		c0.254,0.406,0.531,0.817,0.824,1.223c0.465,0.64,0.793,1.359,1.324,1.965c2.207,2.305,4.801,4.226,7.965,5.762
		c3.074,1.535,6.527,2.207,10.558,2.207c2.969,0,5.59-0.746,7.965-1.954c0.43-0.195,0.926-0.301,1.332-0.527l-0.046-0.043
		c0.05-0.031,0.11-0.038,0.16-0.07l-12.672-12.574l14.958-15.157l0.019-0.015l7.703,7.711l3.183,3.281
		c0.008-0.023,0.012-0.054,0.02-0.074l0.133,0.129c1.152-3.078,1.824-7.007,2.207-11.617c0.285-4.516,0.48-10.562,0.48-17.953
		c0-6.914-0.094-12.77-0.382-17.278c-0.29-4.614-0.672-8.454-1.25-11.43c-0.578-3.07-1.246-5.469-2.207-7.293
		c-0.863-1.825-2.015-3.555-3.363-5.09c-2.015-2.301-4.606-4.125-7.675-5.57c-3.07-1.437-6.626-2.203-10.563-2.203
		c-4.031,0-7.484,0.766-10.558,2.203c-3.164,1.446-5.758,3.27-7.965,5.57c-1.347,1.535-2.5,3.266-3.363,5.09
		c-0.867,1.824-1.629,4.222-2.207,7.293c-0.48,2.976-0.867,6.816-1.058,11.43c-0.187,4.508-0.383,10.363-0.383,17.278
		c0,7.007,0.196,12.769,0.383,17.374C122.219,232.898,122.606,236.641,123.086,239.617z" style="fill: rgb(75, 75, 75);"></path>
	<polygon class="st0" points="388.582,233.282 379.184,207.848 372.129,188.406 372.063,188.582 371.98,188.351 359.735,221.683 
		355.473,233.121 355.531,233.121 355.473,233.282 	" style="fill: rgb(75, 75, 75);"></polygon>
	<path class="st0" d="M510.543,205.422c-2.094-37.656-16.105-73.805-38.492-104.019c-14.886-20.09-32.938-37.18-53.058-51.352
		c-0.102-0.074-0.195-0.148-0.297-0.218c-3.289-2.309-6.656-4.504-10.054-6.656c-1.094-0.695-2.168-1.418-3.274-2.098
		c-2.598-1.59-5.254-3.09-7.91-4.59c-1.984-1.125-3.949-2.27-5.969-3.343c-1.973-1.047-3.98-2.024-5.98-3.02
		c-2.75-1.374-5.493-2.75-8.301-4.035c-1.489-0.683-3-1.305-4.504-1.961c-3.294-1.438-6.602-2.855-9.969-4.172
		c-1.293-0.504-2.606-0.957-3.906-1.445c-3.516-1.309-7.039-2.594-10.625-3.77c-1.559-0.516-3.141-0.965-4.711-1.45
		c-3.254-1.008-6.508-2.008-9.813-2.902c-2.542-0.691-5.109-1.281-7.671-1.902c-2.282-0.55-4.543-1.137-6.848-1.633
		c-4.754-1.038-9.535-1.938-14.332-2.738c-0.086-0.015-0.168-0.034-0.254-0.046C288.461,1.398,272.16,0,255.949,0
		C203.41,0,150.68,13.726,105.875,41.434C91.148,50.539,77.543,61.25,65.289,73.191c-1.211,1.172-2.328,2.406-3.508,3.598
		c-2.586,2.633-5.172,5.266-7.621,8.008c-1.758,1.965-3.394,3.996-5.07,6.008c-1.793,2.156-3.614,4.289-5.324,6.508
		c-1.668,2.16-3.215,4.382-4.79,6.59c-1.629,2.281-3.273,4.547-4.808,6.879c-1.254,1.918-2.41,3.87-3.598,5.816
		c-1.738,2.836-3.462,5.672-5.062,8.578c-0.719,1.312-1.371,2.648-2.059,3.973c-1.926,3.683-3.774,7.394-5.469,11.175
		c-0.199,0.458-0.378,0.918-0.578,1.375c-16.535,37.664-21.512,79.95-9.852,122.543C36.77,370.981,149.723,430.977,254.75,431.359
		c33.985,27.348,68.75,53.774,103.118,80.641c5.039-34.844,10.023-69.687,14.882-104.558c43.207-19.684,83.34-49.59,108.278-90.68
		C501.496,283.039,512.75,245.149,510.543,205.422z M290.891,242.699l-0.094,2.008c-0.286,5.469-1.153,10.367-2.496,14.785
		c-1.246,3.93-3.168,7.485-5.66,10.558l9.945,11.817l6.238,7.57h-23.867l-5.375-6.43c-0.672,0.484-1.343,0.961-2.109,1.539
		c-1.348,0.961-2.977,1.922-4.801,2.687c-1.73,0.863-3.844,1.535-6.051,2.016c-2.305,0.574-4.992,0.863-7.965,0.863
		c-9.508,0-16.801-2.398-21.699-7.199c-4.801-4.801-7.293-11.329-7.293-19.586c0-2.875,0.477-5.566,1.438-7.969
		c0.961-2.305,2.207-4.508,3.648-6.43c1.535-1.922,3.168-3.648,5.09-5.183c1.058-0.973,2.206-1.77,3.359-2.566
		c0.054-0.031,0.11-0.09,0.164-0.118l-0.004-0.004c0.043-0.031,0.086-0.066,0.129-0.098c-0.484-0.578-0.867-1.152-1.347-1.726
		c-1.055-1.25-2.016-2.687-2.879-4.226c-0.867-1.531-1.535-3.168-2.114-4.992c-0.574-1.918-0.961-3.934-0.961-6.141
		c0-2.977,0.578-5.859,1.73-8.352c1.055-2.594,2.688-4.898,4.801-6.722c2.016-1.918,4.508-3.363,7.485-4.418
		c2.882-1.055,6.144-1.532,9.793-1.532c3.461,0,6.625,0.477,9.406,1.532c2.785,1.054,5.285,2.594,7.301,4.418
		c2.015,1.922,3.55,4.222,4.606,6.914c1.054,2.59,1.633,5.374,1.633,8.445c0,3.555-0.864,6.723-2.688,9.215
		c-1.633,2.402-3.844,4.609-6.527,6.625l-3.774,2.66l-0.328,0.211l0.008,0.012l-0.129,0.094l7.789,9.254l2.82,3.438
		c0.012-0.019,0.012-0.039,0.024-0.062l0.117,0.141c0.574-1.055,1.055-2.207,1.344-3.555c0.672-2.301,1.058-4.894,1.152-7.675
		l0.094-1.825h17.309L290.891,242.699z M124.239,138.817c6.527-2.688,14.203-4.126,22.941-4.126c8.641,0,16.418,1.438,22.946,4.126
		c6.434,2.785,12.285,6.722,17.379,11.808c3.836,3.844,6.812,7.875,8.922,12c2.016,4.129,3.554,8.734,4.516,13.535
		c1.054,4.801,1.633,10.176,1.824,15.84c0.191,5.57,0.289,11.906,0.289,18.914c0,5.953,0,11.324-0.191,16.32
		c-0.039,1.992-0.156,3.879-0.282,5.75c-0.062,0.934-0.129,1.856-0.214,2.782c-0.16,1.809-0.336,3.606-0.562,5.289
		c-0.578,4.321-1.442,8.352-2.688,12c-1.152,3.168-2.691,6.336-4.511,9.414l12.766,12.766l-17.661,17.664L176.27,279.84
		c-3.844,2.21-7.969,3.938-12.481,5.183c-4.992,1.446-10.562,2.211-16.61,2.211c-8.738,0-16.414-1.442-22.941-4.226
		c-6.528-2.688-12.383-6.719-17.664-11.711c-3.84-3.938-6.817-7.969-8.832-12.098c-2.114-4.031-3.649-8.637-4.516-13.531
		c-0.957-4.707-1.438-10.082-1.722-15.746c-0.195-5.668-0.294-12-0.294-19.007c0-7.008,0.098-13.344,0.294-18.914
		c0.285-5.762,0.766-11.039,1.722-15.84c0.867-4.801,2.402-9.406,4.516-13.535c2.015-4.125,4.992-8.156,8.832-12
		C111.856,145.539,117.711,141.602,124.239,138.817z M307.328,285.254l52.981-138.179h23.441l39.024,101.785l13.914,36.454h-31.594
		l-10.309-28.993H349.27l-10.398,28.993h-23.395L307.328,285.254z" style="fill: rgb(75, 75, 75);"></path>
</g>
</svg>
