<!--?xml version="1.0" encoding="utf-8"?-->
<!-- Generator: Adobe Illustrator 18.1.1, SVG Export Plug-In . SVG Version: 6.00 Build 0)  -->

<svg version="1.1" id="_x32_" xmlns="http://www.w3.org/2000/svg" xmlns:xlink="http://www.w3.org/1999/xlink" x="0px" y="0px" viewBox="0 0 512 512" style="width: 32px; height: 32px; opacity: 1;" xml:space="preserve">
<style type="text/css">
	.st0{fill:#4B4B4B;}
</style>
<g>
	<path class="st0" d="M256,0C114.618,0,0,114.617,0,256c0,141.382,114.618,256,256,256c141.383,0,256-114.618,256-256
		C512,114.617,397.383,0,256,0z M393.25,337.297L346.883,392.5c-3.718,4.43-10.031,5.648-15.125,2.914
		c0,0-15.149-7.422-26.742-14.32c-31.875-18.93-69.562-49.719-96.984-77.141c-27.414-27.414-58.203-65.102-77.141-96.977
		c-6.891-11.594-14.313-26.734-14.313-26.734c-2.734-5.109-1.515-11.406,2.907-15.133l55.211-46.374
		c4.859-4.055,12.015-3.75,16.5,0.734l44,44c4.422,4.422,4.797,11.462,0.874,16.313l-18.523,22.977
		c-3.68,4.554-3.61,11.078,0.164,15.554c0,0,13.195,19.602,34.774,41.188c21.601,21.594,41.195,34.781,41.195,34.781
		c4.477,3.774,11,3.844,15.554,0.172l22.977-18.531c4.859-3.922,11.89-3.547,16.305,0.875l44.016,44
		C397.008,325.281,397.321,332.437,393.25,337.297z" style="fill: rgb(75, 75, 75);"></path>
</g>
</svg>
